<svg xmlns="http://www.w3.org/2000/svg" viewBox="0 0 32 32" role="img" aria-label="Weleda" width="32" height="32"><metadata><rdf:RDF xmlns:rdf="http://www.w3.org/1999/02/22-rdf-syntax-ns#" xmlns:dc="http://purl.org/dc/elements/1.1/"><rdf:Description><dc:creator>RealFaviconGenerator</dc:creator><dc:source>https://realfavicongenerator.net</dc:source></rdf:Description></rdf:RDF></metadata><style>
    /* App accent (oklch hue 135, green). Same hue in both modes;
       darker shade for light backgrounds, brighter shade for dark. */
    .tile { fill: oklch(58% 32.5% 135deg); }
    .mark { fill: #ffffff; }
    @media (prefers-color-scheme: dark) {
      .tile { fill: oklch(74% 32.5% 135deg); }
    }
  </style><rect class="tile" width="32" height="32" rx="6"></rect><g transform="translate(4 4) scale(0.03125)">
    <g class="mark" transform="translate(0 768) scale(0.1 -0.1)">
      <path d="M4296 7525 c-74 -36 -119 -86 -140 -155 -17 -57 -17 -63 -1 -132 10 -40 26 -84 37 -97 10 -13 18 -27 18 -32 0 -11 52 -85 102 -145 121 -145 146 -177 181 -225 20 -29 37 -60 37 -69 0 -8 8 -27 17 -40 23 -32 30 -204 11 -237 -7 -12 -26 -48 -43 -80 -46 -87 -154 -190 -250 -237 -70 -35 -88 -39 -147 -38 -39 0 -80 7 -97 16 -17 9 -40 16 -51 16 -31 0 -192 82 -250 127 -184 142 -207 153 -321 153 -82 0 -93 -2 -125 -26 -69 -53 -36 -94 90 -108 68 -8 114 -32 244 -131 147 -111 195 -144 227 -160 17 -8 37 -18 45 -23 90 -52 112 -57 240 -56 132 1 124 -1 268 66 97 46 263 211 286 286 4 11 13 26 21 32 8 7 15 20 15 29 0 9 8 32 19 51 10 19 22 62 26 94 4 33 11 71 17 85 12 33 -19 196 -44 230 -10 13 -18 27 -18 32 0 13 -96 151 -150 214 -215 254 -249 311 -218 363 24 40 78 55 168 47 41 -3 93 -15 116 -25 22 -11 44 -20 49 -20 4 0 54 -30 109 -67 148 -99 425 -377 527 -530 21 -32 51 -76 67 -98 15 -22 31 -47 35 -55 5 -8 19 -33 32 -55 24 -38 30 -52 60 -120 7 -16 22 -50 34 -75 11 -25 24 -61 27 -80 4 -19 14 -48 23 -65 19 -36 28 -321 13 -400 -19 -96 -48 -208 -87 -330 -9 -27 -21 -72 -27 -100 -5 -27 -14 -58 -20 -69 -6 -11 -16 -45 -23 -75 -7 -31 -17 -69 -23 -86 -6 -16 -19 -73 -28 -125 -32 -186 3 -310 170 -600 32 -56 46 -88 46 -104 0 -8 8 -31 17 -52 26 -56 25 -378 0 -443 -9 -24 -17 -55 -17 -70 -1 -14 -8 -44 -16 -66 -9 -22 -20 -58 -25 -80 -6 -22 -16 -49 -23 -60 -7 -11 -17 -35 -20 -53 -4 -17 -12 -34 -17 -38 -5 -3 -16 -20 -24 -37 -8 -18 -19 -39 -24 -47 -6 -8 -31 -53 -57 -100 -26 -47 -53 -92 -59 -100 -7 -8 -15 -24 -18 -35 -3 -11 -21 -58 -41 -105 -69 -163 -58 -423 25 -581 10 -20 19 -43 19 -52 0 -8 6 -20 14 -26 8 -7 18 -27 21 -44 4 -18 14 -43 23 -57 25 -37 24 -264 0 -300 -10 -13 -18 -36 -18 -50 0 -14 -9 -42 -20 -63 -11 -20 -20 -45 -20 -55 0 -9 -8 -33 -18 -52 -11 -19 -22 -48 -26 -65 -4 -16 -13 -43 -20 -60 -40 -91 -55 -125 -74 -168 -12 -26 -22 -54 -22 -61 0 -7 -8 -24 -19 -37 -10 -13 -22 -38 -25 -56 -4 -17 -14 -37 -22 -44 -8 -6 -14 -22 -14 -34 0 -12 -8 -33 -18 -46 -11 -13 -21 -33 -25 -44 -10 -34 -53 -133 -64 -147 -6 -7 -14 -24 -18 -38 -4 -14 -13 -32 -20 -40 -7 -8 -16 -26 -20 -40 -4 -14 -13 -32 -20 -40 -7 -8 -16 -26 -20 -40 -4 -14 -13 -32 -20 -40 -7 -8 -16 -26 -20 -40 -4 -14 -12 -30 -17 -37 -5 -6 -41 -73 -79 -150 -39 -76 -77 -145 -85 -154 -8 -8 -14 -22 -14 -31 0 -8 -8 -26 -19 -39 -10 -13 -21 -34 -25 -46 -4 -11 -13 -27 -21 -33 -8 -7 -15 -20 -15 -30 0 -9 -8 -28 -19 -41 -28 -36 -34 -67 -21 -100 11 -26 17 -29 56 -29 27 0 44 5 44 12 0 6 17 28 38 47 35 34 141 184 170 241 7 14 23 43 37 65 13 22 31 54 40 70 40 77 91 165 103 177 6 6 12 19 12 29 0 9 8 27 19 40 10 13 21 34 25 46 4 11 13 27 21 33 8 7 15 20 15 30 0 9 9 29 20 43 11 14 20 32 20 40 0 8 9 26 20 40 11 14 20 32 20 40 0 8 9 26 20 40 11 14 20 32 20 40 0 8 9 26 20 40 11 14 20 32 20 40 0 8 9 26 20 40 11 14 20 32 20 40 0 8 9 26 20 40 11 14 20 34 20 45 0 10 8 30 18 43 11 13 21 33 25 44 11 39 55 137 66 148 6 6 11 18 11 27 0 8 9 32 20 53 11 20 20 43 20 50 0 7 8 28 19 47 10 19 22 51 26 70 4 19 13 44 20 55 7 11 16 43 19 72 4 29 13 71 21 94 20 55 20 212 1 247 -8 15 -21 47 -29 72 -25 77 -39 114 -58 151 -11 20 -19 44 -19 53 0 9 -9 33 -20 53 -11 21 -20 47 -20 58 -1 11 -7 31 -15 45 -30 52 -2 250 41 301 8 8 14 22 14 31 0 8 8 26 18 39 10 13 23 35 30 49 7 14 23 43 37 65 13 22 30 54 38 71 8 17 20 35 26 38 6 4 11 15 11 25 0 10 9 30 20 44 11 14 20 31 20 39 0 7 8 29 19 48 10 19 21 53 25 74 4 22 14 49 22 60 8 11 14 30 14 41 1 11 8 38 16 60 9 22 22 76 29 120 8 44 19 100 24 125 36 163 -6 475 -80 590 -5 8 -16 29 -25 45 -8 17 -26 48 -39 70 -13 22 -38 69 -55 105 -18 36 -39 80 -48 99 -22 46 -22 169 0 236 9 28 21 70 26 95 6 25 14 59 20 75 27 82 46 145 57 195 7 30 17 69 23 85 42 123 76 334 76 475 1 107 -23 269 -42 292 -5 7 -14 31 -18 53 -4 22 -15 56 -25 75 -11 19 -19 41 -19 48 0 11 -21 58 -52 112 -4 8 -13 26 -19 40 -6 14 -15 32 -20 40 -5 8 -15 26 -21 40 -52 105 -279 390 -411 517 -127 121 -307 256 -397 297 -19 8 -42 20 -50 24 -97 57 -350 72 -444 27z"></path>
      <path d="M3160 7370 c-25 -11 -55 -19 -68 -19 -13 -1 -40 -10 -60 -21 -20 -10 -44 -22 -52 -25 -8 -3 -33 -16 -55 -30 -22 -13 -53 -31 -70 -41 -117 -66 -381 -318 -465 -443 -8 -13 -34 -49 -57 -81 -35 -49 -74 -110 -119 -191 -6 -10 -18 -27 -27 -37 -10 -10 -17 -25 -17 -34 0 -8 -8 -26 -18 -39 -10 -13 -23 -35 -30 -49 -7 -14 -25 -47 -41 -75 -16 -27 -30 -57 -30 -66 -1 -9 -10 -28 -21 -42 -11 -14 -20 -31 -20 -39 0 -7 -9 -30 -20 -51 -11 -20 -20 -43 -20 -50 0 -7 -9 -29 -20 -50 -11 -20 -20 -45 -20 -55 0 -9 -8 -33 -19 -52 -10 -19 -21 -53 -25 -74 -4 -21 -13 -48 -21 -60 -7 -12 -16 -39 -20 -60 -3 -21 -12 -48 -20 -60 -7 -12 -16 -41 -19 -65 -4 -24 -13 -56 -21 -72 -8 -15 -15 -43 -15 -61 -1 -18 -9 -58 -20 -88 -11 -30 -19 -66 -20 -80 0 -14 -7 -50 -15 -80 -9 -30 -20 -93 -25 -140 -6 -47 -18 -123 -26 -170 -13 -65 -17 -151 -18 -365 -1 -267 0 -283 22 -338 12 -32 22 -67 22 -77 0 -11 9 -37 20 -57 11 -21 20 -45 20 -54 0 -9 7 -22 15 -29 8 -7 15 -17 15 -23 0 -12 127 -267 166 -332 13 -22 28 -51 34 -65 5 -14 17 -38 27 -55 25 -45 31 -263 8 -325 -9 -25 -21 -67 -27 -95 -5 -27 -14 -55 -20 -62 -5 -7 -15 -36 -23 -65 -7 -29 -18 -66 -24 -83 -25 -72 -45 -210 -49 -335 -3 -143 14 -248 60 -365 52 -130 61 -151 69 -165 5 -8 14 -26 20 -40 6 -14 15 -32 20 -40 9 -15 21 -40 34 -70 3 -8 17 -33 30 -55 14 -22 34 -58 45 -80 22 -46 77 -142 135 -239 22 -37 47 -79 55 -94 8 -15 32 -52 51 -82 40 -60 85 -135 109 -178 8 -15 30 -49 49 -76 18 -28 37 -59 43 -70 5 -12 19 -37 31 -58 12 -20 37 -62 55 -95 18 -32 37 -65 42 -73 5 -8 26 -43 47 -78 21 -35 48 -80 60 -100 13 -20 28 -48 35 -62 6 -14 17 -32 24 -40 6 -8 34 -58 62 -110 28 -52 62 -115 76 -140 14 -25 32 -59 40 -75 19 -40 61 -85 80 -85 9 0 21 -9 28 -20 8 -12 24 -20 40 -20 24 0 28 4 28 28 0 32 -31 134 -54 177 -9 17 -16 36 -16 43 0 8 -6 26 -14 40 -15 28 -191 382 -214 430 -7 15 -17 34 -23 42 -5 8 -14 26 -19 40 -6 14 -15 32 -20 40 -6 8 -16 26 -22 40 -7 14 -20 36 -30 49 -10 13 -18 31 -18 41 0 9 -9 25 -20 35 -11 10 -20 24 -20 31 0 7 -10 29 -23 48 -68 106 -97 156 -97 169 0 8 -7 21 -16 28 -9 7 -20 22 -26 34 -5 11 -20 38 -33 60 -14 22 -30 51 -37 65 -7 14 -20 36 -30 49 -10 13 -18 32 -18 41 0 10 -7 23 -16 30 -8 8 -21 27 -29 44 -8 17 -32 63 -55 101 -22 39 -47 84 -56 100 -8 17 -26 48 -39 70 -14 22 -30 51 -36 65 -6 14 -15 32 -20 40 -10 17 -19 36 -85 185 -8 17 -18 48 -23 70 -6 22 -17 65 -26 95 -21 73 -16 373 7 435 9 22 20 63 26 90 5 28 14 64 20 80 5 17 18 53 27 80 9 28 21 74 26 103 5 29 16 78 24 109 20 78 19 139 -5 208 -11 32 -20 65 -20 74 0 14 -28 80 -52 121 -5 8 -15 29 -24 45 -8 17 -26 48 -40 70 -13 22 -31 54 -39 72 -8 17 -19 34 -24 37 -5 4 -12 19 -16 35 -3 16 -12 35 -20 41 -8 6 -17 26 -21 43 -4 18 -15 48 -25 67 -11 19 -19 44 -19 55 0 11 -7 30 -15 42 -8 12 -19 50 -24 85 -6 34 -15 79 -20 98 -14 44 -14 194 -1 240 5 18 14 109 20 200 5 91 16 188 25 215 8 28 15 66 15 85 0 19 8 67 19 105 34 128 52 199 62 254 5 29 15 63 21 74 6 11 16 46 23 76 13 56 21 82 56 176 11 28 19 57 19 65 0 7 8 32 19 54 10 23 21 50 24 61 9 32 52 132 64 147 6 7 14 24 18 38 4 14 13 32 20 40 8 8 17 27 20 43 4 15 11 29 16 32 4 3 24 38 44 78 20 39 47 90 60 112 13 22 27 47 31 55 35 70 181 257 294 374 281 292 490 387 734 333 44 -10 91 -24 105 -31 14 -8 37 -19 51 -25 95 -43 197 -118 263 -194 25 -28 64 -72 86 -97 22 -25 44 -54 47 -65 4 -11 12 -27 19 -35 18 -21 55 -129 55 -160 0 -15 -14 -40 -35 -62 -61 -68 -109 -51 -299 101 -156 124 -228 151 -311 117 -58 -24 -48 -86 19 -117 79 -38 102 -53 197 -128 53 -42 107 -83 119 -91 12 -8 33 -23 46 -33 82 -63 178 -88 278 -73 36 6 55 17 91 52 25 25 45 53 45 62 0 10 9 35 21 56 35 65 17 251 -33 336 -4 8 -14 26 -21 40 -71 146 -340 408 -456 445 -10 3 -25 12 -31 20 -7 8 -19 15 -28 15 -8 0 -33 9 -56 19 -101 47 -172 61 -299 60 -94 -1 -132 -5 -167 -19z"></path>
      <path d="M3653 5614 c-9 -24 5 -325 19 -383 11 -48 10 -53 -12 -76 -13 -14 -42 -30 -64 -36 -49 -14 -139 -46 -181 -65 -16 -7 -43 -16 -60 -20 -16 -4 -46 -15 -65 -26 -19 -10 -42 -18 -50 -18 -8 0 -33 -9 -55 -19 -22 -11 -65 -29 -95 -42 -66 -26 -139 -59 -160 -71 -16 -9 -46 -23 -70 -32 -8 -4 -33 -17 -55 -31 -22 -13 -56 -33 -75 -43 -48 -28 -104 -88 -135 -145 -72 -136 7 -280 211 -388 33 -16 63 -35 68 -40 6 -5 17 -9 26 -9 8 0 31 -8 50 -19 19 -10 51 -22 70 -26 19 -4 44 -14 55 -21 11 -8 29 -14 40 -14 11 0 34 -7 50 -16 17 -9 53 -22 80 -29 28 -7 64 -18 80 -23 48 -16 155 -42 212 -52 29 -4 74 -15 100 -23 26 -8 60 -18 75 -21 15 -4 32 -15 38 -25 5 -10 14 -140 20 -288 6 -148 15 -284 20 -303 25 -86 -5 -135 -98 -159 -23 -7 -44 -15 -46 -20 -3 -5 -18 -12 -33 -15 -16 -4 -48 -16 -73 -28 -25 -11 -64 -29 -87 -39 -76 -33 -138 -62 -153 -71 -8 -4 -26 -13 -40 -19 -14 -6 -43 -19 -65 -29 -22 -10 -47 -21 -55 -25 -8 -3 -33 -17 -55 -30 -22 -13 -53 -32 -70 -41 -113 -62 -226 -189 -256 -286 -39 -127 18 -247 164 -346 25 -16 56 -33 69 -37 12 -4 30 -13 38 -20 8 -7 29 -16 47 -20 17 -3 37 -13 44 -21 6 -8 20 -14 30 -14 10 0 39 -9 64 -20 25 -11 64 -28 88 -39 23 -10 58 -22 77 -26 19 -4 44 -14 55 -21 11 -8 26 -14 34 -14 7 0 32 -8 55 -19 44 -20 85 -35 156 -58 25 -8 53 -19 64 -25 10 -5 40 -16 67 -24 69 -21 79 -40 80 -159 0 -55 5 -138 9 -185 5 -47 14 -148 20 -225 12 -148 19 -165 65 -165 53 0 55 15 45 275 -5 132 -12 266 -16 298 -5 44 -4 61 6 67 14 9 114 -25 141 -47 8 -7 22 -13 31 -13 8 0 27 -9 41 -20 14 -11 32 -20 40 -20 8 0 26 -9 40 -20 14 -11 31 -20 37 -20 7 0 39 -17 72 -38 123 -77 222 -142 227 -150 12 -15 132 -92 144 -92 41 0 50 81 15 139 -38 65 -226 241 -256 241 -5 0 -17 9 -27 20 -10 11 -26 20 -35 20 -10 0 -29 9 -42 20 -14 11 -36 24 -49 30 -13 5 -31 14 -39 20 -8 5 -26 14 -40 20 -14 5 -32 14 -40 18 -8 5 -37 19 -65 31 -27 13 -68 31 -90 41 -22 10 -54 24 -72 30 -54 20 -60 34 -67 170 -4 69 -11 141 -16 160 -5 19 -14 158 -19 309 -6 150 -16 299 -23 331 -14 68 2 105 50 116 15 3 45 15 68 25 22 10 46 19 52 19 7 0 29 9 49 20 21 11 43 20 50 20 11 0 37 11 149 61 23 11 47 19 53 19 7 0 29 8 49 19 37 19 86 41 132 61 110 48 214 135 263 222 38 66 38 170 2 232 -46 79 -152 153 -245 172 -19 4 -44 12 -55 19 -11 7 -38 16 -60 20 -21 4 -52 13 -67 21 -15 8 -36 14 -47 14 -11 0 -49 8 -83 19 -85 25 -179 49 -263 66 -77 15 -141 37 -154 51 -20 22 -32 148 -41 419 -5 160 -15 314 -21 342 -19 82 9 105 195 158 26 8 53 19 60 24 6 5 27 12 46 16 19 4 44 13 55 20 11 7 36 16 55 20 19 4 53 15 75 24 22 10 65 28 95 41 30 12 62 26 70 31 8 5 26 15 40 22 47 23 165 104 200 138 72 69 91 104 88 162 l-3 52 -39 -2 c-22 -2 -46 -9 -55 -16 -9 -8 -54 -35 -101 -61 -47 -26 -92 -51 -100 -57 -15 -9 -31 -17 -105 -49 -22 -10 -61 -28 -86 -39 -25 -12 -51 -21 -58 -21 -6 0 -28 -9 -48 -20 -21 -11 -45 -20 -53 -20 -9 0 -24 -6 -35 -14 -11 -7 -36 -17 -55 -21 -19 -4 -51 -16 -70 -26 -19 -11 -43 -19 -52 -19 -10 0 -38 -10 -63 -22 -64 -31 -68 -24 -82 155 -7 84 -16 177 -20 207 l-8 55 -48 3 c-37 2 -49 -1 -54 -14z m31 -716 c2 -13 9 -88 16 -168 6 -80 15 -185 20 -235 13 -141 12 -319 -2 -333 -16 -16 -42 -15 -108 3 -30 8 -81 20 -114 26 -32 5 -71 16 -87 24 -15 8 -41 15 -56 15 -15 0 -46 9 -68 19 -22 10 -58 21 -80 25 -21 4 -48 14 -59 22 -11 8 -27 14 -35 14 -7 0 -32 8 -55 19 -23 10 -52 24 -66 30 -14 6 -43 22 -65 36 -22 13 -49 29 -60 35 -26 15 -60 59 -69 87 -8 25 38 77 79 89 11 4 31 15 44 25 13 11 30 19 38 19 8 0 26 9 40 20 14 11 36 20 48 20 12 0 28 7 35 15 7 8 27 17 46 21 18 3 38 12 44 19 6 8 26 17 43 20 18 4 52 16 77 27 78 36 104 47 140 57 66 19 155 53 165 62 5 5 26 9 47 9 31 0 38 -4 42 -22z m354 -1034 c19 -8 49 -14 66 -14 17 -1 56 -9 86 -20 30 -11 66 -20 80 -20 14 -1 43 -8 65 -16 22 -9 62 -20 89 -26 28 -5 59 -16 70 -24 11 -8 27 -14 36 -14 17 0 100 -54 112 -73 18 -29 8 -83 -19 -108 -35 -30 -92 -69 -101 -69 -7 0 -94 -40 -154 -71 -20 -10 -46 -19 -56 -19 -11 0 -25 -6 -31 -14 -7 -8 -27 -18 -44 -22 -18 -4 -48 -15 -67 -25 -19 -11 -42 -19 -50 -19 -9 0 -24 -6 -35 -13 -25 -17 -117 -47 -144 -47 -25 0 -28 18 -36 200 -4 74 -10 153 -15 175 -18 84 -20 234 -2 251 18 19 91 13 150 -12z m-241 -906 c15 -24 49 -442 57 -700 4 -150 3 -180 -10 -193 -11 -11 -20 -12 -34 -5 -10 6 -27 10 -37 10 -10 0 -31 7 -48 16 -16 9 -51 22 -77 30 -26 8 -50 19 -53 24 -3 6 -16 10 -28 10 -12 0 -39 9 -60 20 -20 11 -42 20 -48 20 -7 0 -30 9 -53 19 -23 10 -70 31 -106 46 -263 108 -350 164 -350 227 0 26 73 112 123 144 125 80 166 104 177 104 6 0 23 9 37 20 14 11 32 20 40 20 8 0 26 9 40 20 14 11 34 20 43 20 10 0 23 6 29 14 7 8 27 18 44 22 18 3 38 11 45 17 18 14 120 57 152 64 14 3 32 11 40 18 31 25 65 31 77 13z"></path>
    </g>
  </g></svg>